<svg width="214" height="62" viewBox="0 0 214 62" fill="none" xmlns="http://www.w3.org/2000/svg">
<path d="M31.5028 1.54395C47.7746 1.54395 60.9666 14.7298 60.9666 30.9939C60.9666 47.2581 47.7746 60.4439 31.5028 60.4439C15.2311 60.4439 2.03906 47.2581 2.03906 30.9939C2.03906 14.7298 15.2295 1.54395 31.5028 1.54395Z" fill="#497BB2"/>
<path d="M47.0301 26.4323C47.1479 26.4555 47.2813 26.4927 47.3247 26.392C47.3728 26.2819 47.3728 26.037 47.3495 25.9595C47.3123 25.8417 47.0239 25.8975 46.9417 25.975C46.8998 26.0138 46.9386 26.0882 46.9324 26.1889C46.9262 26.3191 46.8362 26.4028 47.0301 26.4323ZM46.706 33.229C46.7633 33.1965 46.8285 33.1624 46.8998 33.1345C47.3852 32.9299 48.4009 32.6865 49.1484 32.0355C49.6523 31.5395 49.3375 31.1443 49.1639 30.8358C48.8444 30.3305 47.8752 28.9774 47.4968 28.4147C47.4162 28.2954 47.3371 28.176 47.258 28.0582C47.182 27.9451 47.3232 27.8133 47.4333 27.8939C47.4736 27.9234 47.5092 27.9497 47.5418 27.973C47.5728 27.9962 47.6116 27.9978 47.6441 27.9885C47.6473 27.9823 47.6535 27.9776 47.655 27.9714C47.7682 27.5715 47.8364 27.3592 47.8768 27.246C47.8954 27.1933 47.8721 27.136 47.8225 27.1112C47.4751 26.936 46.9107 26.7376 46.095 26.702H46.0857C46.0702 26.702 46.0593 26.702 46.0516 26.6911C45.9461 26.5656 45.8562 26.4462 45.7848 26.3191L45.7337 26.2463C45.7011 26.2013 45.7042 26.1424 45.7383 26.099C45.9384 25.8526 46.6734 25.1163 47.5077 25.1163C47.6922 25.1163 47.8799 25.152 48.0691 25.2372C48.1187 25.2605 48.1776 25.245 48.2071 25.1985C48.3776 24.9257 48.6831 24.3336 48.435 23.478C48.4335 23.4702 48.4304 23.4625 48.4257 23.4563C48.4056 23.416 48.1823 22.906 48.1776 22.906C48.0318 22.906 46.2532 23.3772 45.8856 24.0158C45.7104 24.3196 45.6143 24.5041 45.546 24.6916C45.4964 24.828 45.2933 24.78 45.3103 24.6343C45.4173 23.7616 45.836 22.9541 46.2919 22.5387C46.5121 22.3387 47.5403 22.0659 47.8488 21.9714C47.8488 21.9714 45.743 13.8354 44.2419 13.8556C44.2155 12.9163 43.6572 11.6422 42.8664 11.5399C42.3081 11.467 37.7149 11.0144 35.2601 10.6083C34.2583 10.4425 33.2503 10.3247 32.2362 10.2611C30.2435 10.1356 29.327 10.227 27.7437 10.5944C19.7745 12.9628 17.512 18.2591 16.946 19.6123C16.4885 20.6275 16.4792 21.9636 16.5211 22.2566C16.5273 22.3046 16.4637 22.3279 16.4405 22.2845C16.2637 21.9714 16.0621 21.4227 16.0885 20.5128C15.9179 20.533 15.7271 20.564 15.5255 20.6058C15.1208 20.6926 14.6664 20.8321 14.226 21.0584C14.0058 21.1716 13.7887 21.3064 13.584 21.4661C11.8038 22.8967 11.4937 25.2744 12.0473 27.1809C12.6009 29.2719 13.8135 29.602 14.1981 29.9291C14.2322 29.9585 14.2167 30.0143 14.1702 30.0174C14.057 30.0267 13.888 30.0376 13.7701 30.036C13.5205 30.0345 13.2584 30.0004 13.2584 30.0004V30.0283C13.2026 30.9459 13.246 31.7813 13.3623 32.547C13.3747 32.6292 13.3902 32.7098 13.4042 32.7904C13.5158 33.4181 13.6817 33.9932 13.8911 34.5233C14.0105 34.8271 14.1376 35.12 14.2834 35.3944C14.4943 35.7912 14.73 36.1585 14.9874 36.4964C15.1224 36.6747 15.2635 36.8436 15.4077 37.0064C15.8155 37.4652 16.2621 37.8651 16.7289 38.2154C18.7743 39.7468 21.2105 40.3079 22.5596 40.5109C22.5627 40.5109 22.5643 40.5109 22.5674 40.5109L23.0326 40.5729L23.366 40.6179C23.5164 40.638 23.6637 40.5667 23.7397 40.4365C23.808 40.3187 23.901 40.1606 24.008 39.9762C24.1243 39.7762 24.3569 39.3686 24.4918 39.1268C24.5135 39.088 24.574 39.1082 24.5678 39.1516C24.4841 39.7514 24.2437 41.4332 24.084 42.2438C23.8126 43.628 23.4978 44.8277 23.1443 45.8398C22.7287 47.0271 21.5191 50.4852 18.4161 52.201C17.6361 52.6257 16.1272 53.3155 14.4059 54.0362C14.2788 54.0889 13.981 54.2114 13.5732 54.3757C18.5417 58.1871 24.757 60.4548 31.5042 60.4548C37.0961 60.4548 42.3252 58.8986 46.7788 56.1954C45.8065 55.7288 44.7102 55.1832 43.5518 54.5663C41.494 53.4364 39.3943 52.4661 38.1677 52.1933C37.9924 52.1545 37.8281 52.2863 37.8203 52.4645C37.8033 52.897 37.7924 53.5883 37.7412 54.0486C37.7335 54.1184 37.704 54.2315 37.6125 54.1664C37.5412 54.1153 37.5288 54.0347 37.5148 53.9541C37.5009 53.8719 37.4326 53.3806 37.4125 53.2178C37.3225 52.4475 36.7379 46.4242 36.7084 46.0429C36.5534 42.9243 35.9656 43.1676 34.9344 42.5414C33.1867 41.5448 31.7787 40.5063 31.1212 39.9312C31.07 39.8863 31.1274 39.8072 31.1863 39.8413C31.5027 40.0258 31.8454 40.2149 32.2082 40.4086C32.5804 40.607 32.9758 40.807 33.3883 41.0085C34.0071 41.3092 34.6646 41.6099 35.3438 41.8982C35.7703 42.1121 36.2401 42.2686 36.6852 42.4376C37.138 42.6096 37.5939 42.7724 38.0545 42.9243C39.188 43.2994 40.3402 43.5985 41.5157 43.8093C42.7439 44.0294 44.0186 44.2201 45.2653 44.0542C47.2301 43.7442 46.9959 41.6951 46.8812 40.9542C46.7975 40.1436 46.9959 39.4941 47.0022 39.4786C47.0037 39.474 47.0068 39.4662 47.0084 39.4616C46.1167 39.6755 44.6451 39.398 44.138 38.9082C44.0945 38.8664 44.1364 38.7935 44.1938 38.8106C45.5243 39.2399 46.54 39.0973 46.8827 38.9795C47.2379 38.8571 47.5868 38.7222 47.762 38.3595C48.0272 37.6713 47.548 37.49 47.3232 37.5551C46.4625 37.8542 46.2532 37.583 45.6608 37.5241C44.673 37.4032 43.3812 37.9798 42.0491 37.3412C41.9173 37.2699 41.7933 37.2249 41.6816 37.2032C41.618 37.1893 41.5529 37.1831 41.4847 37.1831C41.4242 37.1831 41.3622 37.1893 41.3017 37.2001C41.2552 37.2094 41.2086 37.2218 41.1637 37.2389C41.1435 37.2466 41.1249 37.2544 41.1047 37.2637C41.097 37.2683 41.0768 37.2792 41.0706 37.2668C41.066 37.259 41.0691 37.2466 41.0706 37.2389C41.0706 37.228 41.0737 37.2172 41.0753 37.2063C41.0799 37.1862 41.0861 37.1645 41.0939 37.1459C41.1047 37.1149 41.1203 37.087 41.142 37.0606C41.2521 36.9134 41.4537 36.8359 41.677 36.8963C42.4911 37.087 42.7795 37.1412 43.6805 36.763C44.1922 36.5336 44.721 36.1523 44.9536 36.002C45.4824 35.6548 45.8732 35.6424 46.6284 36.0206C47.0859 36.2872 47.441 35.7927 47.5775 35.7509C47.6674 35.723 47.7403 35.7245 47.8271 35.7633C47.9388 35.8144 48.0691 35.7478 48.0784 35.6284C48.1776 34.4985 47.7341 33.911 47.7682 33.3732C47.5418 33.4507 47.3898 33.4925 47.3898 33.4925C46.6532 33.694 46.8595 34.2551 47.0301 34.7449C47.0471 34.7914 46.9913 34.8302 46.9525 34.7992C46.5059 34.4535 46.3726 34.1203 46.3555 33.8676C46.3369 33.6072 46.4796 33.3592 46.706 33.229ZM23.4265 31.9441C23.273 33.2554 25.0237 34.5853 25.6626 35.0224C25.7107 35.0565 25.6766 35.1324 25.6192 35.12C23.1303 34.5558 22.2138 32.0898 22.2138 32.0898C19.4799 32.0092 18.1385 31.4124 17.6314 31.1148C17.5787 31.0838 17.6097 31.0032 17.6702 31.0156C18.0269 31.0962 18.3804 31.152 18.7247 31.1892C21.9688 31.6294 24.0235 31.4016 27.9841 27.8691C31.8113 24.5056 35.5082 19.0729 37.0155 15.6908C39.1322 10.94 41.6801 12.7582 42.1701 13.1705C42.1887 13.186 42.1701 13.2154 42.1468 13.2077C39.875 12.4327 38.698 13.4169 37.8405 15.4412C31.6112 29.0766 23.4249 31.9425 23.4249 31.9425L23.4265 31.9441ZM42.2151 25.3891C42.0274 25.5643 41.7297 25.7224 41.2738 25.7146C41.2055 25.7146 41.1497 25.7689 41.1513 25.8386C41.1544 25.9471 41.1559 26.1486 41.1265 26.3145C41.1172 26.3656 41.1451 26.4183 41.1916 26.4416L41.3374 26.516C41.4614 26.5795 41.3994 26.7686 41.2614 26.7438C41.2614 26.7438 41.083 26.7128 41.0024 26.702C40.9807 26.6989 40.9745 26.6989 40.9528 26.7035C40.3154 26.8368 39.7603 26.7934 37.6885 26.44C37.6683 26.4369 37.6482 26.4385 37.628 26.4447C37.5226 26.4819 37.0387 26.5811 36.6945 26.5377C36.4402 26.5113 36.3626 26.4199 36.5053 26.3873C36.8434 26.3098 37.2217 26.175 37.5986 25.9502C38.7538 25.2605 40.1154 24.5909 41.0288 24.7211C41.2412 24.7521 41.3777 24.7939 41.4614 24.8389C41.4738 24.8451 41.4862 24.8513 41.5002 24.8528C41.5529 24.8606 41.6134 24.8606 41.6816 24.8451C41.7886 24.8203 41.8755 24.9365 41.8134 25.028L41.8057 25.0388C41.7421 25.1303 41.8181 25.2512 41.9282 25.2295C41.9778 25.2202 42.0305 25.2062 42.0848 25.1876C42.2089 25.1458 42.3066 25.3008 42.212 25.3907L42.2151 25.3891ZM43.8681 22.3883C43.7131 22.7681 43.3347 23.2036 43.1936 23.3571C43.1626 23.3912 43.1145 23.4051 43.068 23.3912C42.6725 23.2687 40.7527 22.6921 39.9076 22.7789C39.1632 22.8549 36.589 24.0639 35.5283 24.5754C35.4105 24.6327 35.2833 24.4715 35.3826 24.3863C36.7115 23.247 37.8389 22.6596 38.5197 22.3852C39.3338 22.0566 40.1914 21.9683 41.0598 21.9156C41.5358 21.8877 42.015 21.8784 42.4911 21.9156C42.9362 21.9512 43.4153 22.0163 43.8139 22.2349C43.8681 22.2643 43.8899 22.331 43.8666 22.3883H43.8681ZM45.7213 32.5532C45.4902 32.6168 45.2591 32.733 45.0606 32.8663C45.0002 32.9066 44.9025 32.9314 44.9552 32.84C44.9878 32.7857 45.0358 32.7175 45.1103 32.64C45.18 32.5672 45.256 32.5021 45.3367 32.4432C45.8779 32.0433 46.416 31.9177 47.2813 32.0479C47.3418 32.0665 47.486 32.1099 47.503 32.1843C47.5278 32.299 47.2797 32.4044 47.2006 32.4323C47.0735 32.4773 46.9355 32.5005 46.7944 32.5129C46.661 32.5238 46.5261 32.5238 46.3989 32.5191C46.171 32.5129 45.9461 32.4912 45.7228 32.5532H45.7213ZM47.8551 36.3662C47.7279 36.2763 47.6767 36.2655 47.4798 36.3972C47.4007 36.4499 47.3169 36.498 47.227 36.5274C46.9076 36.6328 46.6098 36.5832 46.1772 36.3616C45.453 35.9353 44.4869 36.9847 43.9767 37.1164C44.4853 37.197 45.3506 36.8545 46.3291 37.1862C46.8176 37.3319 47.3076 37.1738 47.6193 36.9568C47.7232 36.8839 47.8132 36.794 47.8768 36.6855C47.9838 36.5057 47.9326 36.4298 47.8551 36.3662ZM40.5046 25.6619L40.0472 25.8309C39.996 25.8495 39.9665 25.9053 39.9758 25.9626L40.0177 26.1812C40.0254 26.2277 40.0549 26.2664 40.0968 26.2804C40.0968 26.2804 40.5155 26.4757 40.593 26.2835C40.6457 26.1905 40.6892 26.037 40.6535 25.7642C40.6442 25.6883 40.5713 25.6387 40.5046 25.6635V25.6619Z" fill="white" fill-opacity="0.8"/>
<path d="M128.899 55.4034L125.97 49.1352H125.101V56.9286H126.081V51.5734L128.521 56.9286H129.211L131.65 51.5734V56.9286H132.63V49.1352H131.762L128.899 55.4034ZM118.261 49.1352L115.098 56.9286H116.134L116.98 54.847H120.578L121.425 56.9286H122.46L119.297 49.1352H118.261ZM117.326 53.979L118.774 50.4155L120.223 53.979H117.326ZM154.34 56.9286H155.32V49.1352H154.34V56.9286ZM162.416 56.2265C160.244 56.2265 159.309 54.7571 159.309 52.9637C159.309 51.0045 160.478 49.8575 162.416 49.8575C164.132 49.8575 164.89 50.5039 164.89 50.5039L165.369 49.7242C165.369 49.7242 164.467 48.9895 162.418 48.9895C159.779 48.9895 158.307 50.6155 158.307 52.9637C158.307 55.312 159.465 57.0945 162.418 57.0945C164.601 57.0945 165.826 56.1366 165.826 56.1366L165.504 55.3461C165.504 55.3461 164.234 56.2249 162.418 56.2249L162.416 56.2265ZM170.804 49.1337L167.641 56.9271H168.677L169.523 54.8454H173.121L173.968 56.9271H175.004L171.84 49.1337H170.804ZM169.869 53.9774L171.318 50.414L172.766 53.9774H169.869ZM150.878 56.2265C150.611 56.2265 150.366 56.1598 150.164 55.7475L149.217 53.8317C150.263 53.4535 150.721 52.663 150.721 51.5486C150.721 49.9676 149.773 49.1321 147.824 49.1321H144.873V56.9255H145.853V54.0751H147.547C147.792 54.0751 148.026 54.0642 148.237 54.041L149.294 56.1676C149.628 56.8465 150.04 56.9922 150.719 56.9922C151.521 56.9922 151.979 56.5582 151.979 56.5582L151.678 56.0017C151.678 56.0017 151.265 56.2249 150.876 56.2249L150.878 56.2265ZM147.547 53.2086H145.853V50.0017H147.824C149.139 50.0017 149.707 50.4915 149.707 51.5486C149.707 52.6057 149.116 53.2071 147.545 53.2071L147.547 53.2086ZM136.085 56.9271H141.944V56.0591H137.065V53.5543H141.065V52.6863H137.065V50.0032H141.944V49.1352H136.085V56.9286V56.9271ZM117.883 6.87445L122.45 12.8311H123.285V5.03616H122.305V11.0486L117.771 5.03616H116.903V12.8296H117.883V6.87445ZM146.898 10.7495H150.496L151.343 12.8311H152.379L149.215 5.0377H148.179L145.016 12.8311H146.052L146.898 10.7495ZM148.691 6.318L150.139 9.88145H147.243L148.691 6.318ZM136.25 10.7603C136.25 9.6691 135.759 9.05686 134.444 8.84451C135.18 8.65541 135.859 8.17645 135.859 7.00775C135.859 5.83905 135.124 5.0377 133.342 5.0377H130.056V12.8311H133.486C135.124 12.8311 136.248 12.0747 136.248 10.7603H136.25ZM131.036 5.9057H133.342C134.344 5.9057 134.846 6.38465 134.846 7.06355C134.846 8.02145 134.122 8.488 133.376 8.488H131.038V5.9057H131.036ZM131.036 9.30175H133.374C134.5 9.30175 135.257 9.7466 135.257 10.7045C135.257 11.5834 134.6 11.9631 133.486 11.9631H131.036V9.30175ZM139.056 12.9985C139.435 12.9985 139.714 12.687 139.714 12.3088C139.714 11.9306 139.435 11.619 139.056 11.619C138.678 11.619 138.399 11.9306 138.399 12.3088C138.399 12.687 138.678 12.9985 139.056 12.9985ZM185.75 12.9985C188.591 12.9985 189.861 11.1277 189.861 8.92355C189.861 6.5412 188.324 4.89355 185.75 4.89355C183.176 4.89355 181.639 6.5412 181.639 8.92355C181.639 11.1277 182.886 12.9985 185.75 12.9985ZM185.75 5.76155C187.689 5.76155 188.858 6.93025 188.858 8.92355C188.858 10.672 187.923 12.1305 185.75 12.1305C183.578 12.1305 182.643 10.672 182.643 8.92355C182.643 6.93025 183.812 5.76155 185.75 5.76155ZM204.385 12.8311H205.365V9.8923L208.774 5.0377H207.57L204.886 8.92355L202.224 5.0377H200.977L204.385 9.88145V12.8311ZM155.553 6.87445L160.12 12.8311H160.956V5.03616H159.976V11.0486L155.441 5.03616H154.573V12.8296H155.553V6.87445ZM173.541 9.37925H178.13V12.8311H179.11V5.03616H178.13V8.50971H173.541V5.03616H172.561V12.8296H173.541V9.3777V9.37925ZM198.77 12.8311V5.03616H197.79V11.0486L193.256 5.03616H192.387V12.8296H193.367V6.87445L197.934 12.8311H198.77ZM84.7097 12.129C82.8054 12.129 81.8253 11.1385 81.8253 11.1385L81.3244 11.9073C81.3244 11.9073 82.2161 12.9985 84.7112 12.9985C86.9613 12.9985 87.9305 11.929 87.9305 10.6828C87.9305 9.2692 86.9287 8.8569 84.8337 8.51125C83.3187 8.26635 82.6177 7.9207 82.6177 7.0527C82.6177 6.3397 83.2752 5.8065 84.8011 5.8065C86.5612 5.8065 87.5304 6.5753 87.5304 6.5753L87.8979 5.7073C87.8979 5.7073 86.7721 4.8951 84.7794 4.8951C82.4952 4.8951 81.5384 6.008 81.5384 7.16585C81.5384 8.63525 82.686 9.0801 84.7019 9.449C86.462 9.7714 86.8512 10.0287 86.8512 10.8409C86.8512 11.6531 86.082 12.1321 84.7128 12.1321L84.7097 12.129ZM102.576 12.129C100.671 12.129 99.6912 11.1385 99.6912 11.1385L99.1903 11.9073C99.1903 11.9073 100.082 12.9985 102.577 12.9985C104.827 12.9985 105.796 11.929 105.796 10.6828C105.796 9.2692 104.795 8.8569 102.7 8.51125C101.185 8.26635 100.484 7.9207 100.484 7.0527C100.484 6.3397 101.141 5.8065 102.667 5.8065C104.427 5.8065 105.396 6.5753 105.396 6.5753L105.764 5.7073C105.764 5.7073 104.638 4.8951 102.645 4.8951C100.361 4.8951 99.4043 6.008 99.4043 7.16585C99.4043 8.63525 100.552 9.0801 102.568 9.449C104.328 9.7714 104.717 10.0287 104.717 10.8409C104.717 11.6531 103.948 12.1321 102.579 12.1321L102.576 12.129ZM170.533 5.03616H162.981V5.90415H166.278V12.8296H167.258V5.9057H170.533V5.0377V5.03616ZM96.8627 5.03616H95.8826V9.59005C95.8826 11.5043 95.1801 12.129 93.5876 12.129C91.995 12.129 91.3483 11.4392 91.3483 9.59005V5.03616H90.3682V9.53425C90.3682 12.0608 91.37 12.9629 93.5876 12.997C95.9152 12.952 96.8627 12.0623 96.8627 9.53425V5.03616ZM109.227 10.7479H112.824L113.671 12.8296H114.707L111.543 5.03616H110.508L107.344 12.8296H108.38L109.227 10.7479ZM111.019 6.31645L112.468 9.87991H109.571L111.019 6.31645ZM91.3716 22.9836C90.7342 22.421 89.9651 21.9761 89.0641 21.6475C88.1631 21.3189 87.1505 21.1546 86.0247 21.1546H77.5825V21.8583H78.7083C79.065 21.8583 79.3643 21.9808 79.6093 22.2241C79.8528 22.4675 79.9753 22.7682 79.9753 23.1247V38.8758C79.9753 39.2323 79.8528 39.533 79.6093 39.7763C79.3659 40.0197 79.065 40.1421 78.7083 40.1421H77.5825V40.8458H85.1811V40.1421H82.6487V33.5329H86.0262C87.152 33.5329 88.1647 33.3686 89.0656 33.04C89.9666 32.7114 90.7358 32.2666 91.3731 31.7039C92.0105 31.1413 92.4989 30.4856 92.837 29.7354C93.1751 28.9852 93.3441 28.1885 93.3441 27.3453C93.3441 26.5021 93.1751 25.7054 92.837 24.9552C92.4989 24.205 92.012 23.5494 91.3731 22.9867L91.3716 22.9836ZM90.0069 29.6223C89.7542 30.2965 89.4114 30.8747 88.9803 31.3521C88.5492 31.8295 88.0329 32.1953 87.4327 32.4495C86.8326 32.7021 86.1751 32.8292 85.4633 32.8292H82.6487V21.8599H85.4633C86.1766 21.8599 86.8326 21.987 87.4327 22.2396C88.0329 22.4923 88.5492 22.8581 88.9803 23.337C89.4114 23.8144 89.7542 24.3926 90.0069 25.0668C90.2597 25.7411 90.3869 26.5006 90.3869 27.3453C90.3869 28.1901 90.2597 28.948 90.0069 29.6238V29.6223ZM112.406 39.6074C111.945 39.2509 111.5 38.7735 111.069 38.1721L107.27 33.1098V32.9687C107.983 32.8184 108.644 32.575 109.253 32.2371C109.862 31.8992 110.397 31.4869 110.856 31.0002C111.315 30.5135 111.677 29.9555 111.94 29.3262C112.202 28.6985 112.334 28.0366 112.334 27.3438C112.334 26.5006 112.165 25.7039 111.827 24.9537C111.489 24.2035 111.002 23.5478 110.363 22.9852C109.726 22.4225 108.957 21.9777 108.056 21.6491C107.155 21.3205 106.142 21.1562 105.016 21.1562H96.5742V21.8599H97.7001C98.0567 21.8599 98.356 21.9823 98.601 22.2257C98.8445 22.469 98.967 22.7697 98.967 23.1262V38.8773C98.967 39.2338 98.8445 39.5345 98.601 39.7779C98.3576 40.0212 98.0567 40.1437 97.7001 40.1437H96.5742V40.8474H104.173V40.1437H101.64V33.2524H104.314L109.379 40.1437H107.69V40.8474H115.006V40.1437H114.021C113.403 40.1437 112.863 39.9654 112.404 39.6089L112.406 39.6074ZM104.457 32.6882H101.642V21.8599H104.457C105.17 21.8599 105.826 21.987 106.426 22.2396C107.026 22.4923 107.543 22.8581 107.974 23.337C108.405 23.8144 108.747 24.3926 109 25.0668C109.253 25.7411 109.38 26.5006 109.38 27.3453C109.38 28.1901 109.253 28.8829 109 29.5386C108.747 30.1958 108.405 30.7584 107.974 31.2265C107.543 31.6962 107.026 32.0558 106.426 32.31C105.826 32.5626 105.168 32.6897 104.457 32.6897V32.6882ZM211.951 36.3446L211.81 37.1878C211.641 38.1814 211.308 38.9223 210.811 39.4105C210.314 39.8988 209.568 40.1421 208.574 40.1421H201.257V30.4391H207.026V32.9703H207.589V27.2043H207.026V27.908C207.026 28.4706 206.839 28.9387 206.463 29.3138C206.088 29.6889 205.62 29.8765 205.057 29.8765H201.257V21.8599H207.87C208.864 21.8599 209.61 22.1032 210.107 22.5915C210.604 23.0797 210.937 23.8206 211.106 24.8142L211.247 25.6574H211.81V21.1577H196.193V21.8614H197.319C197.675 21.8614 197.975 21.9839 198.22 22.2272C198.463 22.4706 198.586 22.7713 198.586 23.1278V38.8789C198.586 39.2354 198.463 39.5361 198.22 39.7794C197.976 40.0228 197.675 40.1452 197.319 40.1452H196.193V40.8489H212.514V36.3493H211.951V36.3446ZM151.085 39.7763C150.842 40.0197 150.541 40.1421 150.184 40.1421H149.059V40.8458H164.395V35.5014H163.832L163.691 36.3446C163.466 37.6947 163.072 38.665 162.509 39.2555C161.947 39.8461 161.168 40.1421 160.174 40.1421H154.125V21.8599H156.657V21.1562H149.059V21.8599H150.184C150.541 21.8599 150.84 21.9823 151.085 22.2257C151.329 22.469 151.451 22.7697 151.451 23.1262V38.8773C151.451 39.2338 151.329 39.5345 151.085 39.7779V39.7763ZM177.621 21.8599H178.747C179.104 21.8599 179.403 21.9823 179.648 22.2257C179.892 22.469 180.014 22.7697 180.014 23.1262V38.8773C180.014 39.2338 179.892 39.5345 179.648 39.7779C179.405 40.0212 179.104 40.1437 178.747 40.1437H177.621V40.8474H185.22V40.1437H182.688V30.7212H188.456V33.2524H189.019V27.4864H188.456V28.1901C188.456 28.7527 188.269 29.2208 187.893 29.5959C187.518 29.971 187.05 30.1586 186.487 30.1586H182.688V21.8614H189.3C190.294 21.8614 191.04 22.1048 191.538 22.593C192.034 23.0813 192.367 23.8222 192.536 24.8157L192.677 25.6589H193.24V21.1593H177.623V21.863L177.621 21.8599ZM146.528 29.5944L140.055 31.0002V31.7039L146.528 31.0002V29.5944ZM136.961 31.0002C136.961 29.5184 136.698 28.1451 136.174 26.8803C135.648 25.614 134.925 24.5181 134.007 23.5897C133.088 22.6612 132.013 21.9296 130.785 21.3964C129.555 20.8617 128.238 20.5951 126.83 20.5951C125.422 20.5951 124.106 20.8617 122.876 21.3964C121.648 21.9312 120.573 22.6628 119.654 23.5897C118.734 24.5181 118.011 25.6155 117.487 26.8803C116.962 28.1467 116.7 29.52 116.7 31.0002C116.7 32.4805 116.962 33.8553 117.487 35.1201C118.013 36.3865 118.734 37.4823 119.654 38.4108C120.573 39.3392 121.646 40.0708 122.876 40.604C124.104 41.1388 125.422 41.4054 126.83 41.4054C128.238 41.4054 129.555 41.1388 130.785 40.604C132.013 40.0693 133.088 39.3377 134.007 38.4108C134.927 37.4823 135.648 36.3865 136.174 35.1201C136.699 33.8538 136.961 32.4805 136.961 31.0002ZM133.416 35.1775C133.022 36.3865 132.497 37.4002 131.841 38.2155C131.183 39.0308 130.423 39.6492 129.561 40.0724C128.698 40.494 127.789 40.7048 126.832 40.7048C125.875 40.7048 124.965 40.494 124.103 40.0724C123.239 39.6508 122.479 39.0323 121.823 38.2155C121.166 37.4002 120.641 36.3865 120.248 35.1775C119.854 33.9685 119.657 32.575 119.657 31.0002C119.657 29.4254 119.854 28.0335 120.248 26.823C120.641 25.6124 121.167 24.6003 121.823 23.785C122.479 22.9697 123.239 22.3512 124.103 21.9281C124.965 21.5065 125.875 21.2957 126.832 21.2957C127.789 21.2957 128.699 21.5065 129.561 21.9281C130.423 22.3497 131.183 22.9681 131.841 23.785C132.497 24.6003 133.022 25.614 133.416 26.823C133.81 28.032 134.007 29.4254 134.007 31.0002C134.007 32.575 133.81 33.9669 133.416 35.1775ZM174.81 40.1421H172.558V21.8599H174.81V21.1562H167.494V21.8599H168.619C168.976 21.8599 169.275 21.9823 169.52 22.2257C169.764 22.469 169.886 22.7697 169.886 23.1262V38.8773C169.886 39.2338 169.764 39.5345 169.52 39.7779C169.277 40.0212 168.976 40.1437 168.619 40.1437H167.494V40.8474H174.81V40.1437V40.1421Z" fill="white" fill-opacity="0.8"/>
</svg>
